<svg xmlns="http://www.w3.org/2000/svg" xmlns:xlink="http://www.w3.org/1999/xlink" width="806.276" height="712.737"><style><![CDATA[.B{fill:#e6e6e6}.C{fill:#09d1b2}.D{fill:#575a89}.E{fill:#2f2e41}.F{fill:#a0616a}.G{fill:#ffb8b8}]]></style><ellipse cx="79.371" cy="696.145" rx="79.371" ry="16.591" class="B"/><path d="M145.348 449.503l3.105 6.417s17.626 23.523 6.738 27.21-16.667-22.31-16.667-22.31l-2.88-3.638z" class="F"/><g class="D"><path d="M125.043 327.99l2.897-1.226s3.43 1.226 3.43 6.498-4.217 82.24-4.217 82.24l8.435 42.175-11.598 2.11-17.924-39.01z"/><path d="M125.043 327.99l2.897-1.226s3.43 1.226 3.43 6.498-4.217 82.24-4.217 82.24l22.67 36.376-14.76 10.544-28.995-41.647z"/></g><g class="E"><path d="M122.935 450.296s13.707 5.272 12.652 14.76-14.76 198.22-14.76 198.22l4.217 21.087-40.066 1.054-1.054-136.013L55.455 685.42H15.4l28.468-239.34z"/><path d="M119.772 680.147l9.5 9.5s22.142 4.217 16.87 11.598-60.1-2.1-60.1-2.1l1.054-16.87zm-68.534 0l9.5 9.5s22.142 4.217 16.87 11.598-60.1-2.1-60.1-2.1l1.054-16.87z"/></g><g class="F"><circle cx="89.195" cy="264.727" r="25.305"/><path d="M105.01 279.49l-2.11 43.228-32.686-18.978 4.218-24.25h30.577z"/></g><path d="M69.162 293.195l30.577 22.142 5.272-15.816 9.49 25.305-5.272 45.338-40.066-76.97z" class="C"/><path d="M72.44 290.07l30.462 46.354 1.222-38.755 3.752 2.957a17.39 17.39 0 0 1 6.625 13.656h0l14.76 13.707-5.272 52.718-1.054 62.207s6.326 5.272 4.217 8.435-10.544 10.544-20.033 10.544-68.534-7.38-68.534-11.598 2.11-59.044 2.11-59.044v-73.806L66 298.467z" class="D"/><path d="M36.477 465.057L50.184 485.1l5.27-23.196-6.326-4.218-12.652 7.38z" class="F"/><path opacity=".2" d="M82.697 550.17l20.27-54.903 1.98.73-20.27 54.903z"/><path d="M73.907 239.95s3.163-15.815 21.087-12.652l-2.11 1.054s16.87-2.11 14.76 7.38c0 0 13.707 8.435 10.544 17.924-1.86 5.5-3.27 11.142-4.217 16.87l-3.163-3.163s-3.163-21.087-22.142-18.98c-14.234 1.582-20.033 8.303-21.516 13.147a42.78 42.78 0 0 1-2.605 6.627l-1.184.26s-6.326-23.196 10.544-28.468z" class="E"/><path d="M52.292 316.39l-9.598-.445-2 1.5a63.12 63.12 0 0 0-6.326 7.381c-2.11 3.163-29.522 80.132-29.522 80.132-.51 4.675.218 9.4 2.11 13.707 3.163 7.38 28.468 51.664 28.468 51.664L54.4 458.73l-25.305-51.664 17.924-25.305z" class="D"/><path d="M613.395 161.476h-3.734V59.197c0-15.7-6.237-30.757-17.338-41.858S566.165 0 550.465 0H333.773c-15.7 0-30.757 6.237-41.858 17.338s-17.338 26.158-17.338 41.858v561.112c0 15.7 6.237 30.757 17.338 41.858s26.158 17.338 41.858 17.338h216.692c15.7 0 30.757-6.237 41.858-17.338s17.338-26.158 17.338-41.858V234.28h3.734z" fill="#3f3d56"/><path d="M597.593 55.232v569.04c-.005 24.8-20.1 44.885-44.9 44.9H331.568c-24.796.003-44.9-20.094-44.908-44.9V55.232c.007-24.796 20.112-44.893 44.908-44.9h26.825a21.35 21.35 0 0 0 19.749 29.39H504.22a21.35 21.35 0 0 0 19.749-29.39h28.735c24.8.005 44.885 20.1 44.9 44.9z" class="B"/><path d="M330.58 351.565h223.094V574.66H330.58zm49.258-100.59h125.838v9.458H379.838zM363 275.55h158.37v9.458H363z" fill="#fff"/><path d="M394.865 373.102h86.842v6.527h-86.842z" class="B"/><path d="M394.865 392.264h134.103v6.527H394.865z" class="C"/><path d="M396.26 410.513h109.3v6.527h-109.3zm-1.395 20.023h63.802v6.527h-63.802z" class="B"/><path d="M394.865 450.095h96.294v6.527h-96.294z" class="C"/><use xlink:href="#B" class="B"/><use xlink:href="#B" y="19.15" class="C"/><g class="B"><use xlink:href="#B" y="37.41"/><use xlink:href="#B" y="57.433"/></g><use xlink:href="#B" y="76.992" class="C"/><path d="M394.865 469.776h86.842v6.527h-86.842z" class="B"/><path d="M394.865 488.937h134.103v6.527H394.865z" class="C"/><g class="B"><path d="M396.26 507.187h109.3v6.527h-109.3zm-1.395 20.013h63.802v6.527h-63.802zm0 19.57h96.294v6.527h-96.294z"/><use xlink:href="#B" y="96.672"/></g><use xlink:href="#B" y="115.834" class="C"/><g class="B"><use xlink:href="#B" y="134.083"/><path d="M355.284 525.157h10.634V535.8h-10.634z"/><use xlink:href="#B" y="173.665"/></g><circle cx="442.126" cy="149.795" r="72.736" fill="#fff"/><path d="M441.526 114.125c-19.803 0-35.856 16.053-35.856 35.856s16.053 35.856 35.856 35.856 35.856-16.053 35.856-35.856c-.058-19.78-16.077-35.798-35.856-35.856zm0 10.757c4.35 0 8.273 2.62 9.938 6.64s.745 8.646-2.332 11.723-7.703 3.997-11.723 2.332-6.64-5.587-6.64-9.938c.02-5.933 4.824-10.737 10.757-10.757zm0 51.784a26.12 26.12 0 0 1-21.514-11.481c.172-7.17 14.342-11.12 21.514-11.12s21.34 3.948 21.514 11.12c-4.84 7.14-12.888 11.434-21.514 11.48z" class="C"/><ellipse cx="725.333" cy="687.145" rx="80.943" ry="16.591" class="B"/><path d="M639.544 441.077l-10.63-1.844s-21.726-10.026-23.043-2.433 19.417 14.318 19.417 14.318l22.315-2.387z" class="G"/><use xlink:href="#C" class="D"/><use xlink:href="#C" opacity=".2"/><path d="M625.703 383.864l-7.586-7.672s-11.872-20.775-17.352-15.356 7.5 22.93 7.5 22.93l19.556 11.01z" class="G"/><g class="E"><path d="M730.214 342.755l9.34-2.277a24.04 24.04 0 0 0 18.63-8.807c4.574-5.583 6.397-12.925 4.968-20h0c.022-17.357-14.03-31.445-31.388-31.467h0c-17.357-.022-31.445 14.03-31.467 31.388h0c-2.458 8.555-.177 17.773 5.988 24.194s15.282 9.076 23.93 6.968zm-54.93 155.643l7.602 83.242 13.77 81.708 23.12.03-2.982-80.153-12.208-97.12-29.3 12.294z"/><path d="M699.743 658.728l-15.425 9.23s-24.665 3.052-20.05 10.764 58.567 3.156 58.57.074-1.516-20.04-4.6-20.043zm43.787-167.522s-.434 11.9-11.246 30.383l1.47 57.03 55.4 70.97-20.06 16.93-67.722-77.152-16.84-92.502 21.606-21.552z"/><path d="M784.528 649.586s18.492 3.106 15.4 10.81-10.844 43.144-30.875 38.495c0 0-9.248-.012-6.158-6.173 1.858-3.706 3.92-7.305 6.18-10.782l.025-20.037z"/></g><g class="G"><circle cx="720.204" cy="321.2" r="23.12"/><path d="M730.974 336.627l-.033 26.203-24.66-.03 3.115-26.2 21.58.027z"/></g><g class="D"><path d="M746.176 501.567l-15.3-2.56c-19.518-3.28-39.507-2.44-58.68 2.47l9.75-97.1s-6.67-25.34 3.12-33.9c11.95-10.45 22.53-18.77 22.53-18.77l23.36 1.87c13.06 26.04 10.23 58.77 1.42 94.03z"/><path d="M720.675 357.15l-51.488 46.576-44.556-23.14-9.355 11.45 39.358 34.678a18.5 18.5 0 0 0 18.838 1.616l50.21-24.3z"/></g><g class="E"><circle cx="764.834" cy="289.25" r="14.917"/><path d="M751.07 281.23a14.91 14.91 0 0 1 17.852-14.605 14.91 14.91 0 1 0-9.299 28.099c-5.225-2.46-8.557-7.72-8.553-13.495zm-12.796 8.46l-20.1-3.703-15.465 9.693a23.46 23.46 0 0 0-10.807 22.895l15.5-3.926 3.468-8.697a25.37 25.37 0 0 0 9.041 8.777c8.776 5.038 10.8 15.746 11.848 27.293l16.966-9.227 10.8-16.94z"/></g><path opacity=".2" d="M719.276 390.037l-40.16 42.55.9-8.98 39.26-33.57z"/><defs ><path id="B" d="M355.284 371.05h10.634v10.634h-10.634z"/><path id="C" d="M701.374 364.197L686.483 432l-49.713 7.02-1.906 20.006 64.11.17 32.062-58.578-29.66-36.432z"/></defs></svg>