<svg xmlns="http://www.w3.org/2000/svg" xmlns:xlink="http://www.w3.org/1999/xlink" width="1130.08" height="738.14"><style><![CDATA[.B{opacity:.1}.C{fill:#565661}.D{fill:#09d1b2}.E{fill:#fff}.F{fill:#a26565}.G{fill:#454b69}.H{fill:#bcbec9}.I{stroke:#535461}.J{stroke-miterlimit:10}.K{stroke-width:2}.L{fill:#dfe6f5}]]></style><defs><linearGradient id="A" x1="421.41" y1="548.67" x2="423.73" y2="548.67" gradientUnits="userSpaceOnUse"><stop offset="0" stop-color="gray" stop-opacity=".25"/><stop offset=".54" stop-color="gray" stop-opacity=".12"/><stop offset="1" stop-color="gray" stop-opacity=".1"/></linearGradient><path id="B" d="M370.12 523.76a4.63 4.63 0 0 1-1.7 5c-1.3.8-3 .7-4.3 1.58-1.6 1.13-1.84 3.37-2.12 5.3-1 6.67-4.3 12.72-7.14 18.85s-5.22 12.82-4.18 19.48c.7 4.52 2.93 9.34.85 13.4-.5 1-1.27 1.9-1.85 2.86-2.85 4.76-1.23 10.8-1.34 16.33a3.23 3.23 0 0 1-.39 1.77 4.89 4.89 0 0 1-1.58 1.22 8.38 8.38 0 0 0-3.41 6.43 24.57 24.57 0 0 0 .9 7.46 4.44 4.44 0 0 0 1.23 2.6 4.6 4.6 0 0 0 2.69.76 59.84 59.84 0 0 1 18.26 4.44c3.8 1.58 7.47 3.56 11.5 4.32a3 3 0 0 0 2.36-.25 3.25 3.25 0 0 0 1-1.73c1.55-5.1 3.12-10.36 2.6-15.66-.23-2.28-.84-4.5-1-6.8-.7-9 5.4-17.12 7.32-26 .87-4 .87-8.14 1.5-12.18 1.68-11.07 7.78-21 10.13-31.95a34.73 34.73 0 0 1 1.52-6c1.75-4.24 5.8-7.68 5.9-12.27a4.78 4.78 0 0 0-.76-2.86 6.48 6.48 0 0 0-3.57-2 121.87 121.87 0 0 0-16.55-3.34 31.35 31.35 0 0 0-7.78-.54 22.9 22.9 0 0 0-9.52 3.36c-3.86 2.38-1.38 2.95-.54 6.4z"/></defs><path d="M584.48 132.75c-71.37 12.06-142.64 6.9-211.2-.63s-136.95-17.34-208.35-14.38c-45.93 1.9-97.08 11-129.15 37.45C4.9 180.63.1 214.96.04 245.95c-.08 23.3 1.94 47.43 18.46 66 11.48 12.88 29.15 22.1 42.46 34 46.3 41.3 32.23 106.33 1.84 161.62-14.26 25.94-31.7 51.45-41.4 78s-11 55 6.38 76.65C45 683.7 78.3 695.8 113.03 702.06c70.54 12.74 149.13 4.83 225.17-5.9 168.3-23.8 334.84-60.93 501.03-97.96 61.5-13.7 123.25-27.48 182.5-47.24 32.9-11 66.4-24.7 87.65-46 27-27 27.68-63.93 1.66-86-43.66-37-142.48-28.8-176.25-71.1-18.58-23.3-10.5-54.92 4.3-82.86 31.7-59.92 93-119.12 85.06-178.86-5.48-41-47.3-74.93-103.33-83.77-58.74-9.26-134.18 8.3-168 49.56-34.77 42.5-105.3 70.12-168.33 80.8z" class="B D"/><path d="M360 359.24h283.43v65.63H360z" class="C"/><path d="M360 359.24h283.43v65.63H360z" class="B"/><path d="M393.9 427.03l2 175.2-27.26 68.82-2.1-244.03h27.38z" class="H"/><path d="M363 371.84l275.95 1.66v48.88H363v-50.54z" class="C"/><path d="M615.33 427.03l23.6 3.33V668.4l-23.6-72.8V427.03z" class="H"/><path fill="#efeff0" d="M647.9 361.87h133v282.6h-133z"/><path d="M658.55 369.72h111.7v217.23h-111.7z" class="C"/><path d="M658.55 369.72h111.7v217.23h-111.7z" class="B"/><path d="M658.55 374.17h111.7v48.2h-111.7zm0 52.86h111.7v102.4h-111.7zm0 108.72h111.7v102.4h-111.7z" class="C"/><path d="M658.55 535.75h111.7v102.4h-111.7z" class="B"/><g class="C"><ellipse cx="663.21" cy="653.67" rx="7.2" ry="9.2"/><ellipse cx="763.06" cy="654.11" rx="7.2" ry="9.2"/></g><g fill="#efeff0"><path d="M359 671.06h9.64L366 364.32h-14.64L359 671.06zm279.94-309.2V668.4h8.97V364.32l-8.97-2.45z"/><path d="M366.46 419.38v10.98h272.48v-7.98l-272.48-3z"/></g><path d="M384.93 341.26h345.44l50.2 16.62v9.64L349.7 364.2v-9.8l35.24-13.13z" class="E"/><path d="M349.7 354.4l430.88 3.5v9.64L349.7 364.2v-9.8z" class="H"/><path d="M423.68 549.64l-2-.3v-.25l-.2-1.4 2.32 1.95z" transform="translate(-34.96 -80.93)" fill="url(#A)"/><path d="M345.26 623.12l3.94-.73a47.42 47.42 0 0 1 26.62 3.92c-.84 6.18-1.67 12.57.1 18.54 1.24 4.2 3.73 8 4.26 12.38a7.3 7.3 0 0 1 5.75 5.08 11.05 11.05 0 0 1 .57 3.56 19 19 0 0 1-.56 4.44 4.48 4.48 0 0 1-4.8 4c-7.74.88-15.33-2.17-22.53-5.16l-14-5.82c-1.64-.68-3.3-1.37-4.86-2.2a26.63 26.63 0 0 1-7.79-6.37 3.55 3.55 0 0 1-.93-1.68c-.26-1.76 1.8-2.8 3.1-4a6.23 6.23 0 0 0 1-1.22c1.55-2.34 1.7-5.57 2.63-8.33 2.2-6.55 9-10.77 11.4-17.16a13.14 13.14 0 0 0 .35-1.06" class="F"/><path d="M386.5 665.87a19 19 0 0 1-.56 4.44 4.48 4.48 0 0 1-4.8 4c-7.74.88-15.33-2.17-22.53-5.16l-14-5.82c-1.64-.68-3.3-1.37-4.86-2.2a26.63 26.63 0 0 1-7.79-6.37 3.55 3.55 0 0 1-.93-1.68c-.26-1.76 1.8-2.8 3.1-4a6.23 6.23 0 0 0 1-1.22c3.86.83 8.65 3.26 11.6 4.2a35.22 35.22 0 0 1 8.44 3.53c3.68 2.36 6.33 6 9.45 9s7.15 5.73 11.5 5.36a19 19 0 0 0 6.54-2.26z" class="B"/><use xlink:href="#B" class="G"/><use xlink:href="#B" opacity=".05"/><path d="M350.55 674.47h-8.53l-5.58-114.64-.4-6.52 7.25-2.55.5 6.93 6.76 116.78z" class="C"/><path d="M343.8 557.7l-7.35 2.14-.4-6.52 7.25-2.55.5 6.93z" class="B"/><path d="M457.58 698.72l-14.07 1.7-64.82-147.1-17.48-1.28-30.7 8.96-5.97 175.15h-14.07L316 554.6l-33.7.86L222.2 705.1h-12.8l65.67-181.65 94.23-3.23 23.5 13.17.3.76 64.48 164.56z" class="C"/><path d="M393.1 534.16l-41.27 12.76s-19.17 6.7-27.3 0a12.27 12.27 0 0 0-3.39-1.87 16.7 16.7 0 0 0 3.39 1.87l-51.9-16.73 2.43-6.73 94.24-3.23 23.5 13.17z" class="B"/><path d="M297.25 505.13l38.37-8.53s91.68 17.06 98.5 23.88c0 0-73.34 14.92-81.44 20s-56.3 10.7-55.43-35.35z" class="E"/><path d="M280.75 409.24c-3 9.5-11.2 18.08-21.16 18.5a3.69 3.69 0 0 1-2.11-.38c-1.25-.78-1.28-2.6-.77-4s1.4-2.64 1.54-4.1a2.68 2.68 0 0 0-.06-.89c-.26-1.2-1.23-2.25-2.37-2a4 4 0 0 0 .85-5.31 12 12 0 0 1-1.22-1.64c-.83-1.7.46-3.6 1-5.43 1.1-4-1.7-8-1.94-12.17-.2-3.73 1.7-7.24 2.16-10.94.75-6-2.23-11.75-2.58-17.74-.24-4.18.8-8.32 1.94-12.35 1-3.6 2.13-7.24 2.2-11 0-2.73-.47-5.43-.6-8.15a14.19 14.19 0 0 1 1.31-7.24 5.79 5.79 0 0 1 3.29-2.81c3.28-1.1 5.43.6 5.9 3.72.8 5.3.34 10.7 1.4 16a75 75 0 0 0 4.39 14.49c1.77 4.22 3.92 8.3 5.28 12.67a69.8 69.8 0 0 1 2.19 11c1.34 10 2.4 20.27-.64 29.78z" class="D"/><path d="M508.5 651.28a15.51 15.51 0 0 1-10.93 6.44c-4.34.54-8.85-.55-13.06.64a4 4 0 0 0-3 2.31 24.54 24.54 0 0 0-.19 2.45c-.5 2.67-4 3.27-6.73 3.25l-11.26-.07c-2.34 0-4.93-.13-6.6-1.75a4.92 4.92 0 0 1-.1-6.48 4.07 4.07 0 0 1 1.26-1 4 4 0 0 1-2.7-3.21 11.94 11.94 0 0 1 .21-4.41c0-4.18 1-11.18 3.94-14.45 3.6-4.07 9.87-9.33 15.32-10.42a12 12 0 0 1 10.38 2.95c2.58 2.4 4.46 6.16 8 6.58 1.93.24 3.8-.67 5.7-1a10.61 10.61 0 0 1 10.81 5.71 11.26 11.26 0 0 1 1 3.13 13 13 0 0 1-2.04 9.33z" class="F"/><path d="M508.5 651.28a15.51 15.51 0 0 1-10.93 6.44c-4.34.54-8.85-.55-13.06.64a4 4 0 0 0-3 2.31 24.54 24.54 0 0 0-.19 2.45c-.5 2.67-4 3.27-6.73 3.25l-11.26-.07c-2.34 0-4.93-.13-6.6-1.75a4.92 4.92 0 0 1-.1-6.48c6.5-.27 12.9 0 19.37-1.34 2.63-.53 5.22-1.23 7.88-1.6 5.76-.82 11.9-.12 17.18-2.56 4.4-2 7.57-6.07 9.44-10.6a13 13 0 0 1-1.99 9.32z" class="B"/><path d="M478.8 635.47c-4 3.1-8.7 5.52-13.73 5.78s-10.4-2-12.86-6.38c-3.6-6.43-.4-15.37-4.83-21.27-1.38-1.85-3.37-3.16-4.83-4.95s-2.3-4.48-1-6.38c-1.57.6-3.23-.92-3.7-2.54s-.17-3.36-.45-5c-.73-4.35-5-7.14-7.05-11s-1.77-8.87-2-13.44a51 51 0 0 0-11.8-30.35c-1.36-1.62-3.1-3.27-5.22-3.2.37-3.66-2.07-7.16-5.23-9s-6.92-2.46-10.58-2.82c-36.93-3.64-75.4 10.1-110.67-1.46-9.8-3.2-19.27-8.58-25.27-17a29.72 29.72 0 0 1-5.29-22.48v-.14c1.4-7.1 5.14-8.85 11.35-12.1a136.24 136.24 0 0 1 22.39-9.39c15-4.7 31.15-6.38 46.63-2.94 7.23 1.62 14.2 4.3 21.44 5.87 2.85.62 5.72 1.06 8.6 1.43 4.5.56 9 .93 13.52 1.45a204.53 204.53 0 0 1 42.46 9.55c5.13 1.74 10.26 3.73 14.67 6.88a32.5 32.5 0 0 1 13.04 21.46c.42 2.94.43 6 1.07 8.85a45 45 0 0 0 2.4 7 465.63 465.63 0 0 1 20.89 65 15.79 15.79 0 0 0 1.67 4.7c1.28 2.07 3.48 3.46 4.77 5.53 3 4.88.1 11.7 2.77 16.77.92 1.76 2.45 3.15 3.37 4.9 3 5.77-1.43 12.67-6.55 16.64z" class="G"/><path d="M427.7 520.57a16.5 16.5 0 0 0 3.63-4 7.46 7.46 0 0 0 1.1-5.17 14.79 14.79 0 0 1-3.89 12.72c-2.5 2.57-7.22 5.1-10.9 4.2.52-2.94 7.72-5.78 10.05-7.76zm-62.48-49.84a6.71 6.71 0 0 1-4.44 4.58 18.5 18.5 0 0 1-6.59.77h-2c-26.24-.58-52.76-6.4-78.4-.85a56.76 56.76 0 0 0-9.06 2.67 40.9 40.9 0 0 0-10.41 6v-.14c1.4-7.1 5.14-8.85 11.35-12.1a136.24 136.24 0 0 1 22.36-9.3c15-4.7 31.15-6.38 46.63-2.94 7.23 1.62 14.2 4.3 21.44 5.87 2.85.62 5.72 1.06 8.6 1.43a6.91 6.91 0 0 1 .5 4z" class="B"/><path d="M365.22 469.3a6.7 6.7 0 0 1-4.44 4.59 18.27 18.27 0 0 1-6.59.76h-2c-26.24-.58-52.76-6.4-78.4-.85a57.78 57.78 0 0 0-9.06 2.66 41.2 41.2 0 0 0-10.85 6.4q-1.15-3.16-2.3-6.33c-.92-2.52 2-3.08 2.56-5.34.37-1.53-.26-3.27-.58-4.9a8.55 8.55 0 0 1-.16-1.21c-.18-3.6 1.1-5.7 4.07-7.64 8.78-5.8 19.5-9.78 29.5-12.77a73 73 0 0 1 16.4-3.18c7.88-.46 15.75 1 23.42 2.85 9.43 2.33 18.76 5.4 27.12 10.34 4.1 2.4 8.1 5.4 10.3 9.65a7.6 7.6 0 0 1 .97 4.97z" class="F"/><path d="M280.75 409.24c-3 9.5-11.2 18.08-21.16 18.5a3.69 3.69 0 0 1-2.11-.38c-1.25-.78-1.28-2.6-.77-4s1.4-2.64 1.54-4.1a2.68 2.68 0 0 0-.06-.89c5.3-7.46 10.42-15 12.45-23.83a12.74 12.74 0 0 0 .37-4.67c-.27-1.8-1.18-3.43-1.68-5.17-.88-3.08-.47-6.34-.22-9.53a88 88 0 0 0-6.84-41.09c-1.35-3.12-2.9-6.28-3.36-9.6a5.79 5.79 0 0 1 3.29-2.81c3.28-1.1 5.43.6 5.9 3.72.8 5.3.34 10.7 1.4 16a75 75 0 0 0 4.39 14.49c1.77 4.22 3.92 8.3 5.28 12.67a69.8 69.8 0 0 1 2.19 11c1.37 9.92 2.42 20.2-.6 29.7zm84.47 60.06a6.7 6.7 0 0 1-4.44 4.59 18.27 18.27 0 0 1-6.59.76h-2a43.57 43.57 0 0 0-29-7c-3.26.4-6.52 1.15-9.78.85-6.6-.6-11.93-5.34-17.8-8.37a37.38 37.38 0 0 0-41.43 5.62l-.57.5a8.55 8.55 0 0 1-.16-1.21c-.18-3.6 1.1-5.7 4.07-7.64 8.78-5.8 19.5-9.78 29.5-12.77a73 73 0 0 1 16.4-3.18c7.88-.46 15.75 1 23.42 2.85 9.43 2.33 18.76 5.4 27.12 10.34 4.07 2.43 8.07 5.43 10.28 9.7a7.6 7.6 0 0 1 .97 4.97z" class="B"/><path d="M387.65 359.76l-.14.36c-2.24 5.8-6.36 10.72-9 16.38-3.33 7.17-4.15 15.2-4.9 23.1-.64 6.75-1.27 13.54-.76 20.3 1.28 16.68 9.43 32.5 11.6 48.86a54.31 54.31 0 0 1 .41 11.41c-.18 2.4-.62 5-2.22 6.78s-4.7 2.48-6.43.77l2.33-4.4c-4.57-3.55-11.45-1-16.8-3.22-2.35-1-4.23-2.8-6.2-4.4a43.48 43.48 0 0 0-32.39-9.46c-3.26.4-6.52 1.16-9.78.86-6.6-.6-11.93-5.34-17.8-8.37a37.4 37.4 0 0 0-41.43 5.61c-1.4 1.3-3.28 2.82-5 2a4.16 4.16 0 0 1-1.55-1.69c-6.55-11.2-1.73-25.62 5.27-36.52s16.27-20.95 19.15-33.58a12.53 12.53 0 0 0 .37-4.67c-.27-1.8-1.18-3.43-1.68-5.17-.88-3.08-.47-6.34-.22-9.53a88 88 0 0 0-6.82-41.1c-1.6-3.73-3.5-7.5-3.5-11.56 0-6.38 4.57-11.67 8.35-16.8 4.35-5.9 8-12.43 13.5-17.28 5.22-4.6 12.78-7.43 19.24-5.1a119.94 119.94 0 0 1 33.56-3.27c3.9.18 7.93.6 11.35 2.48 3.66 2 6.3 5.56 9.9 7.7 2.63 1.57 5.66 2.3 8.52 3.4a35.21 35.21 0 0 1 18.36 16.42c4 7.75 5 16.66 5.88 25.34.84 8.17 1.64 16.66-1.2 24.35z" class="D"/><path d="M372.86 419.9c1.28 16.68 9.43 32.5 11.6 48.86-4.36-3.7-10.43-7.4-11.24-11.7-.9-4.64-3.78-10.72-4.26-15.4s2.8-10.42-.64-13.64c-1.68-1.57 2.8-1.13 1.15-2.74-3.7-3.6-4.6-9.12-4.83-14.25-.4-9.08.76-18.26-.9-27.2-1-5.5-3.1-10.76-4.76-16.1-1.94-6.23-3.34-12.6-4.74-19a133.12 133.12 0 0 1-3-17.26c-.43-5-.23-10.3 2-14.86s6.74-8.26 11.8-8.2c16.92.22 14 23.16 17.72 33.76 1.5 4.22 3.5 8.3 4.3 12.7a33.66 33.66 0 0 1 .48 5.22c-2.24 5.8-6.36 10.72-9 16.38-3.33 7.17-4.15 15.2-4.9 23.1-.68 6.77-1.3 13.56-.8 20.33z" class="B"/><path d="M383.86 341.92c1.5 4.22 3.5 8.3 4.3 12.7 1.35 7.37-.74 15.2 1.53 22.34a38.92 38.92 0 0 1 1.48 4.67c.4 2.27-.06 4.6-.06 6.9 0 3.72 1.17 7.32 2.2 10.9a194.63 194.63 0 0 1 6.95 37.16 46.59 46.59 0 0 0 1.59 10 33.21 33.21 0 0 1 1.08 3.38 17.48 17.48 0 0 1 .19 4.63c-.27 4.9-.82 9.82-.27 14.7s2.33 9.83 6 13.1c-3.28.7-6.75 1.42-9.95.37-4.5-1.47-7.2-6-9.5-10.12-2.9-5.26-13.92-10-15.06-15.9-.9-4.63-3.77-10.7-4.25-15.4s2.8-10.4-.65-13.63c-1.67-1.57 2.8-1.14 1.15-2.74-3.68-3.6-4.6-9.12-4.82-14.26-.4-9.07.75-18.25-.9-27.18-1-5.5-3.1-10.76-4.76-16.12-1.94-6.22-3.34-12.6-4.74-19a131.73 131.73 0 0 1-3-17.26c-.43-5-.24-10.3 2-14.87s6.75-8.25 11.8-8.2c16.85.3 13.95 23.25 17.67 33.85z" class="D"/><path d="M335.64 345.83c1.58 1.85 3.6 3.88 6 3.52a1.3 1.3 0 0 1-1.77.42 3.8 3.8 0 0 1-1.33-1.53l-3.42-5.77c-.45-.75-3.55-5.12-4.3-2.6-.3 1.07 4.06 5.06 4.83 5.96zm-1.84 14.4a7.62 7.62 0 0 0-2.23-5 12.5 12.5 0 0 0-4.13-2.49c-3.75-1.54-8.2-2.78-12.26-2.58 1.48 2.16 6.23 3.45 8.6 4.67q5.06 2.6 10 5.4zm10.65 40.96c-.7 5.12-4.88 9-9.12 12s-9 5.58-11.77 9.92c-1.92 3-2.78 6.48-4.4 9.6-1.8 3.45-4.5 6.35-6.64 9.6s-3.83 7.1-3.17 10.95a1.29 1.29 0 0 0 .46.92 1.31 1.31 0 0 0 1.27-.14c4.36-2.28 6.08-7.5 7.9-12a138.65 138.65 0 0 1 6.48-13.32c1.08-2 2.27-4.18 4.28-5.3a37.55 37.55 0 0 1 4.22-1.47 14.19 14.19 0 0 0 5.21-4.09 34.34 34.34 0 0 0 8-23.31c-.06-1.8-.16-10.4-2.85-7.75s.6 10.9.13 14.38z" class="B"/><path d="M351.04 204.8c8.6 3.75 16 12 15.73 21.35-.23 9.82-8.45 19.07-5.62 28.48 1.64 5.46 6.58 9.12 10.5 13.27 14.9 15.76 14.86 43.27-.08 59-5.72 6-13.07 10.27-19.12 16-21.33 20.1-22.24 54.87-10.82 81.86a133.14 133.14 0 0 1-26.62 3c-4.2 0-9.32-.7-10.84-4.62-1.4-3.6 1-8.5-1.76-11.16-1.3-1.25-3.25-1.42-5-1.7-11.26-1.82-20.5-10.8-24.72-21.4s-4-22.5-1.58-33.65c1.72-8.05 4.4-16.9.42-24.1-5-9.06-19.38-12.88-19.16-23.24.18-8.5 10.2-12.62 15.87-18.93 10.48-11.62 5.5-29.65 5.47-45.3 0-13.78 4.82-28 15.08-37.18 15.26-13.77 44.65-9.3 62.26-1.65z" class="F"/><g class="B"><path d="M273.16 320.85c-4.4-7.92-15.92-11.84-18.6-19.63a11.09 11.09 0 0 0-2.16 6.26c-.22 10.36 14.14 14.18 19.16 23.25a18.89 18.89 0 0 1 2 10.42c1.58-6.96 2.97-14.22-.4-20.3zm89.14-79.03c1.8-5.25 4.4-10.55 4.54-16a15 15 0 0 0-.05-1.77c-2 6.02-5.1 11.86-4.5 17.77zm-87.42 27.98c3.44-10.87.47-24.35.46-36.4 0-1.46.06-2.93.17-4.4a57.74 57.74 0 0 0-1.78 14.26c.02 8.6 1.53 17.95 1.15 26.54zm98.35 46.88c-5.72 6-13.07 10.27-19.12 16-10.8 10.17-16.35 24.1-17.74 38.87 2.58-11 7.8-21.13 16.14-29 6-5.7 13.4-9.95 19.12-16a42.49 42.49 0 0 0 11.15-27.06 40.61 40.61 0 0 1-9.55 17.19zM316.67 417.5c-4.2 0-9.32-.72-10.84-4.63-1.4-3.6 1-8.48-1.76-11.16-1.3-1.25-3.26-1.42-5-1.7-11.25-1.8-20.5-10.8-24.7-21.4-3.1-7.82-3.78-16.35-3-24.77a29.33 29.33 0 0 0-.22 1c-2.38 11.14-2.63 23.07 1.58 33.66s13.46 19.58 24.7 21.4c1.78.3 3.74.47 5 1.7 2.8 2.68.36 7.56 1.76 11.16 1.52 3.9 6.65 4.68 10.84 4.63a133.23 133.23 0 0 0 26.62-3 89.38 89.38 0 0 1-3.23-8.93 132.74 132.74 0 0 1-21.75 2.04z"/><path d="M349.42 373.9c2.47 1.86 5.15-5.23 3.62-7-.4.46-4 6.74-3.62 7zm10.53 128.34c2.9-1 6-2 7.9-4.4 1.57-1.93 2.86-9.6-.46-5.92-2.82 3.15-4.15 7.3-7.44 10.32zm29.63-8.04c-.35 2.36-1 4.8-2.67 6.5-.3.32-1 .52-1.1.1a25.29 25.29 0 0 0 5.16-3.64c3.38-3.35 3.84-11.6-1.3-13.8-.05 3.62.46 7.15-.1 10.83z"/></g><path d="M425.15 479.34s-28.38-11.15-38.64-10 11.62 17.32 11.62 17.32l13.08 8.82 8.53-3.23c.53-.23 5.4-12.9 5.4-12.9z" class="G"/><path d="M229.88 359.72s21.32-12.36 49.46 3 32.83 105.75 32.83 105.75-11.5 92.1 32.87 71.6c0 0 81-25.15 89.1-19.6 0 0 7.68 0-7.67 3.4s-74.65 22.2-74.65 22.2-19.17 6.7-27.3 0-31.13.86-34.12-45.2a801 801 0 0 0-10.66-86.56l-7.9-23.45z" class="C"/><path d="M227.32 502.14s9.38-93.38-6-127.07c-13.38-29.36 38.36-15.63 51.86-11.63a9.83 9.83 0 0 1 5.18 3.7c8 11.25 36.7 56.34 28.24 116.67 0 0-3.4 53.73 17.9 62.25l-65.7-21.16c-5.33-1.72-10.74-3.15-16.2-4.4-6.96-1.58-18.3-6.07-15.3-18.37z" class="E"/><path d="M694.53 676.47h8.53l5.97-121.16-7.25-2.55-.48 6.93-6.77 116.78z" class="C"/><path d="M701.3 559.7l7.35 2.14.38-6.52-7.25-2.55-.48 6.93z" class="B"/><path d="M623.3 632.2a19.23 19.23 0 0 1-1.2 4.58 8.09 8.09 0 0 1-3.65 4.56 9.64 9.64 0 0 1-3.69.73c-4.7.28-9.7.2-13.74-2.2a25 25 0 0 1-4.71-3.93 214.9 214.9 0 0 1-24.72-29.4c-1.23-1.77-2.5-3.86-1.95-6a93.21 93.21 0 0 0 26.77-12.25 12.92 12.92 0 0 1 3.76-2 20.43 20.43 0 0 1 7.06-.26c2.27.37 2.37.44 3.24 3 1.44 4.33 1.2 9 2.82 13.33a41.3 41.3 0 0 0 3.74 6.84c4.18 7 7.4 15.24 6.27 23z" class="F"/><path d="M623.3 632.2a19.23 19.23 0 0 1-1.2 4.58 8.09 8.09 0 0 1-3.65 4.56 9.64 9.64 0 0 1-3.69.73c-4.7.28-9.7.2-13.74-2.2a25 25 0 0 1-4.71-3.93 214.9 214.9 0 0 1-24.72-29.4c-1.23-1.77-2.5-3.86-1.95-6a92.81 92.81 0 0 0 9.16-3.06l.15.1c3.07 2.2 5.3 5.33 7.47 8.4l7 9.85a29 29 0 0 0 4.39 5.3 29.38 29.38 0 0 0 6.79 4.08c3.3 1.6 6.58 3.18 10 4.46 2.2.9 5.95 1.24 8.7 2.5z" class="B"/><path d="M629.77 525.4a30.1 30.1 0 0 1-2.5 4.77 204.16 204.16 0 0 0-21.32 49.89c-1.38-.3-2.16 1.57-2.15 3s0 3.23-1.32 3.75c-.4.15-.83.15-1.2.32-.84.38-1.08 1.45-1.2 2.37l-1.18 8.66c-.4 3-.77 6.25.7 8.9a14.23 14.23 0 0 0 3.87 4l19.52 15.4c.8.63 1.8 1.3 2.75.95 2.2-.8.25-4.72 2-6.3 1.16-1.1 3-.27 4.6-.4 2.1-.16 3.7-2.1 4.22-4.12a19.59 19.59 0 0 0 .11-6.26 5.68 5.68 0 0 1 .32-2.81 6.82 6.82 0 0 1 2.39-2.29 25.66 25.66 0 0 0 10.51-21.64 12 12 0 0 1 .14-3.83 10.09 10.09 0 0 1 1.81-3.16c7.1-9.6 13-20 18.87-30.4 3.38-6 6.82-12.1 8-18.85a1.75 1.75 0 0 0-1.44-2.4 68 68 0 0 0-8.94-2.14c-9.2-1.86-18.06-4.73-27-7.5s-8.87 2.86-11.56 10.08z" class="G"/><path d="M587.5 700.72l14.08 1.7 64.8-147.1 17.48-1.28 30.7 8.96 5.96 175.15h14.07l-5.54-181.55 33.7.86 60.12 149.66h12.8L770 525.46l-94.24-3.23-23.5 13.17-.3.76-64.48 164.56z" class="C"/><path d="M651.98 536.16l41.27 12.76s19.17 6.7 27.3 0a12.27 12.27 0 0 1 3.39-1.87 16.7 16.7 0 0 1-3.39 1.87l51.9-16.73-2.4-6.73-94.24-3.23-23.5 13.17z" class="B"/><path d="M747.83 507.13l-38.37-8.53s-91.68 17.06-98.5 23.88c0 0 73.34 14.92 81.44 20s56.3 10.7 55.43-35.35z" class="E"/><path d="M605.45 644.2c-2.3 4.4-8 5.64-13 5.7a54.89 54.89 0 0 1-20.32-3.63c-3.7-1.42-7.25-3.25-11.07-4.3-5.7-1.56-12-1.43-17-4.56a20 20 0 0 1-6.39-6.93c-.3-.5-.57-1-.83-1.52-2.4-4.65-3.5-10.06-2.17-15.08s6.16-10.55 11.76-10.47c6.65.1 14.58 3.25 21 4.88 8 2 16 4.3 23.07 8.54 5.92 3.56 11.15 8.67 13.94 14.9a25.27 25.27 0 0 1 1.32 3.72c.87 2.88 1.07 6.1-.3 8.72z" class="F"/><path d="M605.45 644.2c-2.3 4.4-8 5.64-13 5.7a54.89 54.89 0 0 1-20.32-3.63c-3.7-1.42-7.25-3.25-11.07-4.3-5.7-1.56-12-1.43-17-4.56a20 20 0 0 1-6.39-6.93c-.3-.5-.57-1-.83-1.52 1 .08 1.92.18 2.42.23 6.14.6 12 2.83 17.86 4.52a100.32 100.32 0 0 0 25 3.9c6 .17 12.26-.27 17.5-3.2a45.91 45.91 0 0 1 4.86-2.67 25.27 25.27 0 0 1 1.32 3.72c.83 2.88 1.03 6.1-.35 8.72z" class="B"/><path d="M648.42 454.07c-13-2.13-26.24-2.65-39.42-3.17l-16.12-.64a7.31 7.31 0 0 0-3.39.41 22.09 22.09 0 0 0-2.65 2c-1.62 1.1-3.7 1.22-5.64 1.33a280.77 280.77 0 0 0-41.16 5.34c-7 1.43-14.27 3.3-19.53 8.13-5.56 5.1-8 12.9-8.2 20.44s1.8 14.95 3.88 22.2a101.09 101.09 0 0 1 4.37 26.86 50.25 50.25 0 0 0 .29 7.57 36.22 36.22 0 0 0 2.11 7l7.36 19.65 2 5.1c.7 1.68 1.4 3 2 4.58.9 2.16 1.6 4.4 2.32 6.63l4.9 15.4.64 2c1.77 5.54 3.58 11.18 6.92 15.94s8.5 8.6 14.32 8.9a43.86 43.86 0 0 1 5.62.15 22.72 22.72 0 0 1 4.61 1.67 35.17 35.17 0 0 0 13.77 2.69c4.35 0 9.18-1.2 11.54-4.87 1.3-2 1.64-4.46 2-6.82.63-4.74 1.24-9.7-.37-14.2-1-2.7-2.68-5-3.84-7.65-1.62-3.6-2.15-7.6-3.2-11.4a43.58 43.58 0 0 0-13.3-21.16 208.58 208.58 0 0 1-5-27.38 24.09 24.09 0 0 0-1.21-6c-1.17-3-3.54-5.43-4.53-8.5-.93-2.84-.65-6.12-2.34-8.57 14.07 3.87 28 3 42.6 2.77a116.42 116.42 0 0 0 14-.8 44 44 0 0 1 6.56-.7c4.52 0 8.76 2 12.9 3.76 11.73 5 24.1 8.93 36.83 9.47 13.15.55 26.15-2.54 39-5.6 5.65-1.35 11.52-2.8 16-6.52s7-10.4 4.24-15.5c-2.1-3.83-6.45-5.7-10.5-7.3-11.24-4.44-22.54-8.77-33.37-14.14-16.54-8.06-28.9-26.06-47.03-29.06z" class="G"/><g fill="#a1616a"><path d="M625.24 408.83c-1.57 3.4-4.2 6.18-6.16 9.38a23.77 23.77 0 0 0-3 17.65 20.08 20.08 0 0 0 11.25 13.69 28.23 28.23 0 0 0 7.8 1.88c3.52.43 7.27.52 10.38-1.18a15.16 15.16 0 0 0 5.53-5.78c2.7-4.5 4.22-9.57 5.62-14.62 2.6-9.32 4.8-18.88 4.48-28.55-.1-3.33-.77-7.08-3.53-9a11.87 11.87 0 0 0-4.64-1.52l-13.2-2.36c-2.55-.46-7-2.33-9.2-.5s-2.38 7.28-2.76 9.83c-.6 3.77-.97 7.6-2.57 11.07zm160.33-38.68l-3.45 28.92a133 133 0 0 0-1.23 15.56c0 2.9.1 6.12-1.83 8.3a7.56 7.56 0 0 1-3.44 2.07c-4.2 1.3-8.76.14-12.76-1.65-2.34-1-4.73-2.45-5.8-4.78a11.88 11.88 0 0 1-.75-5.07c0-17.25 1.63-35.24 10.64-49.94a10.89 10.89 0 0 1 3.17-3.66c2.5-1.6 5.77-1.15 8.6-.28 1.74.53 6.44 1.12 7.55 2.67s-.47 5.88-.7 7.87z"/><circle cx="694.04" cy="229.57" r="36"/><path d="M684.4 283.22a18.57 18.57 0 0 1-2.23 8q27.57-4.2 55-9.36a25.83 25.83 0 0 1-12.76-15 42.36 42.36 0 0 1-1.62-10.69 123.57 123.57 0 0 1 .33-17.21c-6.4.67-12.46 3.07-18.56 5.13a183 183 0 0 1-18.69 5.23c-3.05.68-6.12 1.26-9.2 1.8-3.6.64-5.33.63-2.83 3.8 6.7 8.44 11.5 17.02 10.56 28.3z"/></g><path d="M695.47 278.4c-4.75.7-9.73 1.5-13.52 4.45a51 51 0 0 0-4.11 3.95c-7.53 7.3-18.16 10.25-27.3 15.4a12 12 0 0 0-3.88 3.05c-1 1.4-1.5 3.16-2.56 4.54-1.22 1.6-3.15 2.6-4.1 4.37s-.74 3.65-.84 5.53c-.23 4.13-1.8 8.05-3 12-5.55 18.9-2.5 40-10.9 57.86a8.13 8.13 0 0 0 4.42 4.62 25.1 25.1 0 0 0 6.56 1.41l18.6 2.3c2.66.33 5.48.64 7.9-.47a92.94 92.94 0 0 0-4.69 18.93 94.28 94.28 0 0 1-2.1 11.72c-2.56 8.8-9 16.13-16.63 21.14a6.15 6.15 0 0 0-2.35 2.17c-1 2 .48 4.24 1.53 6.2 3.05 5.68 2.63 12.5 2.6 18.94s.6 13.5 5.1 18.13c2.66 2.73 6.3 4.2 9.84 5.62l29.1 11.63a101.45 101.45 0 0 0 14.82 5c7.67 1.75 15.64 1.68 23.5 1.34q7.8-.33 15.58-1a12.12 12.12 0 0 0 5.89-1.55 11 11 0 0 0 3.45-4.68c4.05-8.8 5.4-19.1 11.7-26.47 4.3-5.07 11-9.12 11.5-15.75.23-3.3-1.24-6.5-1.26-9.82 0-4.07 2.13-7.94 2-12-.27-6.6-6.5-11.65-7.5-18.2-2.52-16.58 5.9-33.14 11.07-49.1.93-2.85 2.13-6 4.87-7.22s6.6-.58 7.58-3.28c2.47-6.78 3.06-14.73 2.74-21.94-.18-4.17-1.66-8.25-1.5-12.43.12-2.94 1.06-5.8 1.3-8.73.38-4.43-.8-8.83-2-13.1a20.54 20.54 0 0 0-1.56-4.42 21 21 0 0 0-2.6-3.57l-4.87-5.8c-2.28-2.7-4.7-5.52-8-6.9-1.07-2.65-4.5-4.48-6.94-5.94a71.12 71.12 0 0 0-7.64-3.75l-27.54-12.16a11.28 11.28 0 0 0-3.27-1.06 10.59 10.59 0 0 0-4.86 1c-8.4 3.33-17.17 6.65-26.17 8z" class="D"/><path d="M666.3 235.83c-1.06-3.73-3.77-6.95-4.18-10.8-.37-3.43 1.14-6.75 2-10.1s.83-7.42-1.82-9.64c-.44-.38-1-.72-1.16-1.28-.32-1 .7-1.9 1-2.92.57-2-1.9-4.2-1-6.13.5-1.05 1.8-1.42 2.9-1.75 4.28-1.27 8.62-4.1 9.55-8.46 3.35 1.4 6.92-1.23 9.5-3.78s5.73-5.46 9.27-4.7l-.8 1.6a25.6 25.6 0 0 1 16.93-.19h-1.68a23.22 23.22 0 0 1 13.39 4.53c-.43 0-.47.64-.3 1 1.4 3.27 5 5 8.47 5.8 2.1.5 4.36.86 5.9 2.36s1.56 4.63-.46 5.35a52.6 52.6 0 0 1 11.61 6.3c1 .73 2.13 1.72 2 3a9.76 9.76 0 0 1-.62 1.87 6.47 6.47 0 0 0 .21 3.2l1.1 4.58c1.22 5.1 2.18 11.22-1.53 14.9a13.69 13.69 0 0 1-2.41 16.16 6.66 6.66 0 0 1-5 8.61c1.23 1.92.1 4.66-1.84 5.86s-4.38 1.2-6.64 1-4.55-.72-6.8-.38c-3.3.5-6.5 2.75-9.68 1.75a21.73 21.73 0 0 1-3.39-1.82c-2.22-1.2-4.8-1.46-7.26-2a33.54 33.54 0 0 1-11.73-5 13.75 13.75 0 0 1-5.39-6c-2.2-5.56 1.5-12.85-2.4-17.38-2.28-2.64-6.8-2.68-9.35-.42-1.27 1.13-1.44 3.5-2.76 4.36a17.45 17.45 0 0 1-5.64.48z" fill="#464353"/><path d="M617.38 522.57a16.5 16.5 0 0 1-3.63-4 7.46 7.46 0 0 1-1.1-5.17 14.79 14.79 0 0 0 3.89 12.72c2.5 2.57 7.22 5.1 10.9 4.2-.52-2.94-7.72-5.78-10.05-7.76z" class="B"/><path d="M815.2 361.72s-21.32-12.36-49.46 3-32.83 105.75-32.83 105.75 11.5 92.1-32.87 71.6c0 0-81-25.15-89.1-19.6 0 0-7.68 0 7.67 3.4s74.65 22.2 74.65 22.2 19.17 6.7 27.3 0 31.13.86 34.12-45.2a801 801 0 0 1 10.66-86.56l7.9-23.45z" class="C"/><path d="M817.76 504.14s-9.38-93.38 6-127.07c13.38-29.36-38.36-15.63-51.86-11.63a9.83 9.83 0 0 0-5.18 3.7c-8 11.25-36.7 56.34-28.24 116.67 0 0 3.4 53.73-17.9 62.25l65.7-21.16c5.33-1.72 10.74-3.15 16.2-4.4 6.96-1.58 18.3-6.07 15.3-18.37z" class="E"/><ellipse cx="989.97" cy="670.07" rx="97.44" ry="15.65" class="B D"/><path fill="#535461" d="M986.83 370.26h6.27v141.17h-6.27z"/><path d="M1032.5 511l-1.73 28.1-.24 3.74-6.88 111.07c-.6 9.09-8.15 16.16-17.26 16.16h-32.87c-9.13-.004-16.68-7.108-17.24-16.22l-8.87-142.92a9 9 0 0 1 8.94-9.51h67.22a9 9 0 0 1 8.93 9.58z" class="C"/><path d="M1032.12 517.36l-.56 8.97h-83.18l-.56-8.97h84.3zm-.8 12.72l-.55 8.98h-81.6l-.56-8.98h82.72zm-.8 12.72l-.56 8.97h-80.02l-.56-8.97h81.14z" fill="#9d9cb5"/><path d="M938.24 423.17c36.52 26.42 51.73 67.74 51.73 67.74s-44-1.5-80.53-27.93-51.72-67.73-51.72-67.73 44 1.5 80.52 27.92z" class="D"/><path d="M857.72 395.25s45.67 25.35 60.33 46.34 71.92 49.32 71.92 49.32" fill="none" class="I J K"/><path d="M961.8 369.95c19.88 14.37 28.16 36.87 28.16 36.87s-24-.83-43.83-15.2-28.1-36.87-28.1-36.87 23.9.82 43.77 15.2z" class="D"/><path d="M918.04 354.75s24.86 13.8 32.83 25.22 39.15 26.85 39.15 26.85" fill="none" class="I J K"/><path d="M1018.85 405.67c-22.83 25.1-27.66 57.88-27.66 57.88s32.2-7.9 55-33 27.66-57.88 27.66-57.88-32.17 7.9-55 33z" class="D"/><path d="M1073.87 372.68s-29.74 25.72-37.3 43.44-45.38 47.43-45.38 47.43" fill="none" class="I J K"/><path d="M556.98 345.27v2.28h-67.6v-1.85a22.72 22.72 0 0 0 5.22-2.78 22.21 22.21 0 0 0 9.28-18.06 21.92 21.92 0 0 0-.69-5.47 22.23 22.23 0 0 0-12.28-14.73h65.62a22.23 22.23 0 0 0-12.28 14.73 21.92 21.92 0 0 0-.68 5.47 22.2 22.2 0 0 0 9.27 18.06 22.87 22.87 0 0 0 4.15 2.35z" class="L"/><path d="M556.52 304.66a22.23 22.23 0 0 0-12.28 14.73h-41.06a22.23 22.23 0 0 0-12.28-14.73z" class="B"/><path d="M411.96 293v12.84c0 7.08 5.18 12.83 11.58 12.83h198.9c6.4 0 11.6-5.75 11.6-12.83V293z" class="L"/><path d="M556.98 345.27v2.28h-67.6v-1.85a22.72 22.72 0 0 0 5.22-2.78h58.24a22.87 22.87 0 0 0 4.15 2.35z" class="B"/><rect x="467.03" y="343.63" width="112.29" height="6.77" rx="3.39" class="L"/><path d="M634.04 152.38a11.58 11.58 0 0 0-11.59-11.58h-198.9a11.57 11.57 0 0 0-11.58 11.58V295.5h222.08z" fill="#474157"/><path d="M627.98 157.55v123a5.7 5.7 0 0 1-5.7 5.71H423.72a5.7 5.7 0 0 1-5.7-5.71v-123a5.62 5.62 0 0 1 .76-2.85 5.7 5.7 0 0 1 4.94-2.85h198.56a5.7 5.7 0 0 1 5.7 5.7z" fill="#4c4c78"/><g class="E"><circle cx="523" cy="146.32" r="2.67"/><circle cx="523" cy="306.38" r="6.59"/></g><path d="M627.98 157.55H418.04a5.7 5.7 0 0 1 5.7-5.7h198.54a5.7 5.7 0 0 1 5.7 5.7z" fill="#c8cad7"/><g fill="#ededf4"><circle cx="423.72" cy="154.7" r="1.43"/><circle cx="428" cy="154.7" r="1.43"/><circle cx="432.28" cy="154.7" r="1.43"/></g></svg>