<svg xmlns="http://www.w3.org/2000/svg" xmlns:xlink="http://www.w3.org/1999/xlink" width="1076.064" height="755.228"><path d="M864.146 702.423c-6.985 26.598-31.46 43.22-31.46 43.22s-13.15-26.502-6.166-53.1 31.46-43.22 31.46-43.22 13.15 26.502 6.166 53.1z" fill="#3f3d56"/><path d="M853.552 696.797c-19.563 19.327-21.75 48.83-21.75 48.83s29.528-1.83 49.09-21.16 21.75-48.83 21.75-48.83-29.53 1.83-49.09 21.16z" fill="#09d1b2"/><use xlink:href="#B" fill="#2f2e41"/><use xlink:href="#B" opacity=".1"/><use xlink:href="#C" fill="#a0616a"/><use xlink:href="#C" opacity=".1"/><path d="M176.312 434.706l28.947 56.578s-6.58 27.63-17.105 30.263-55.262-34.2-55.262-34.2z" fill="#d0cde1"/><path d="M176.312 434.706l28.947 56.578s-6.58 27.63-17.105 30.263-55.262-34.2-55.262-34.2z" opacity=".1"/><path d="M529.45 572.514l8.55 35.272c.095.393.08.805-.043 1.2l-38.788 121.21c-.317.99-1.28 1.623-2.314 1.52s-1.856-.912-1.973-1.944l-5.366-47.22c-.036-.314-.003-.63.094-.93l35.603-109.264c.305-.937 1.195-1.557 2.18-1.52s1.824.725 2.056 1.682z" fill="#2f2e41"/><path fill="#f2f2f2" d="M526.306 575.493l7.894 30.263L500 716.28l-7.894-34.2 34.2-106.577z"/><path d="M353.94 739.964c1.316 3.947 136.84-1.316 138.155-2.632a28.56 28.56 0 0 0 2.895-5.263c1.237-2.632 2.368-5.263 2.368-5.263l-5.263-42.604-134.208-4.763s-3.355 36.105-4.04 52.63c-.17 4.17-.17 7.105.092 7.895z" fill="#2f2e41"/><path opacity=".1" d="M475 689.965l2.63 36.84h-59.2v-36.84h56.578zm-76.313 11.84l.353-.07-1.67 15.86h-32.894v-15.8h34.2zm-44.737 38.158c1.316 3.947 136.84-1.316 138.155-2.632a28.56 28.56 0 0 0 2.895-5.263H353.848c-.17 4.17-.17 7.105.092 7.895z"/><g fill="#a0616a"><circle cx="196.049" cy="357.076" r="59.209"/><path d="M192.102 409.707s-19.736 34.2-23.684 52.63-59.2-36.84-59.2-36.84l-7.237-19.08s51.973-24.342 48.025-44.078 42.104 47.368 42.104 47.368zm10.526 102.63l53.946 71.05 128.945 96.05s93.42 19.736 72.367 34.2-81.577-13.158-81.577-13.158-130.26-69.736-157.892-98.682-78.946-77.63-78.946-77.63z"/></g><path d="M130.26 622.86l15.79 25 94.23-29.646c20.676-6.505 43.348-4.11 61.687 7.442 16.447 10.362 26.973 26.81 3.29 51.15-47.368 48.683-78.946 22.368-78.946 22.368s-159.207 75-185.523 38.157-27.63-55.262-27.63-55.262 101.314-63.157 117.103-59.21z" fill="#2f2e41"/><path d="M327.625 709.7s42.104 27.63-7.895 40.79-86.84-5.263-86.84-5.263-43.42 0-43.42-22.368 14.473-25 14.473-25l44.736 6.58s53.946-14.473 78.946 5.263z" fill="#d0cde1"/><path d="M244.62 342.182c4.03 1.797 8.026 3.923 12.408 4.444s9.37-1.008 11.444-4.903c1.12-2.104 1.248-4.578 1.3-6.96.158-7.225-.364-15.036-4.943-20.627-2.914-3.56-7.167-5.802-10.184-9.274-2.16-2.488-3.6-5.503-5.148-8.41-5.866-11.017-14.55-21.606-26.622-24.782-5.04-1.326-10.328-1.262-15.54-1.188l-30.397.43c-4.92.07-9.914.15-14.623 1.574-9.784 2.958-16.908 11.186-23.432 19.054-4.88 5.887-9.775 11.834-13.44 18.547a65.08 65.08 0 0 0-7.714 31.887c-.04 2.85.327 5.692 1.093 8.437a46.82 46.82 0 0 0 3.316 7.284c5.7 11.197 9.085 25.182 2.665 35.983 11.152-4.555 22.186-10.528 29.542-20.068 3.29-4.267 5.872-9.263 10.258-12.395s11.532-3.403 14.346 1.193c.967 1.86 1.465 3.927 1.45 6.022.206 3.45.2 7.033 1.663 10.164s4.947 5.658 8.273 4.72c5.73-1.614 5.18-10.406 9.593-14.4 3.35-3.033 8.52-2.453 12.826-3.83 5.016-1.604 8.78-5.95 10.924-10.76 1.63-3.656 1.606-13.223 4.69-15.203 3.868-2.483 12.664 1.464 16.25 3.063z" fill="#2f2e41"/><g fill="#d0cde1"><path d="M97.272 400.176c2.664-.71 5.468-.704 8.128.02 8.446 2.268 27.38 8.27 31.44 17.405 5.263 11.842 23.684 30.263 23.684 30.263s25 25 19.736 42.104-25 36.84-25 36.84 5.263 81.577-21.052 102.63-36.84 6.58-36.84 26.315S15.79 737.332 0 699.175c0 0 7.895-71.05 5.263-96.05-2.594-24.64 1.203-178.365 92.01-202.948z"/><path d="M139.47 433.39s80.262 59.21 65.788 84.21c0 0-48.683 23.684-59.21 22.368S94.735 492.6 84.21 488.653s-15.79-75 55.262-55.262z"/></g><circle cx="498.064" cy="237.458" r="65" fill="#f2f2f2"/><path d="M1034.93 153.04H670.68V76.82h364.25zm-362.644-1.605h361.04v-73h-361.04z" fill="#3f3d56"/><g fill="#09d1b2"><path d="M645.81 92.065h362.644v74.615H645.81z"/><circle cx="416.565" cy="15.244" r="5.616"/><circle cx="435.82" cy="15.244" r="5.616"/><circle cx="455.076" cy="15.244" r="5.616"/></g><g fill="#3f3d56"><path d="M1076.064 439.666H400.52V0h675.545zm-673.94-1.605h672.336V1.605H402.123z"/><path d="M401.32 24.338h673.94v1.605H401.32z"/><use xlink:href="#D"/><use xlink:href="#D" x="19.255"/><path d="M456.68 19.255a6.42 6.42 0 0 1-6.418-6.418 6.42 6.42 0 0 1 6.418-6.418 6.42 6.42 0 0 1 6.418 6.418 6.43 6.43 0 0 1-6.418 6.418zm0-11.232c-1.947 0-3.702 1.173-4.447 2.972s-.333 3.87 1.044 5.246 3.447 1.8 5.246 1.044 2.972-2.5 2.972-4.447a4.82 4.82 0 0 0-4.814-4.814zM612.1 25.14h1.605v414.346H612.1z"/></g><path d="M688.733 228.86h117.94v16.046h-117.94zm185.334 0h117.94v16.046h-117.94z" fill="#f2f2f2"/><path d="M813.893 237.684H694.35v-17.65h119.544zm-117.94-1.605H812.29v-14.442H695.954z" fill="#3f3d56"/><path fill="#f2f2f2" d="M688.733 353.217h117.94v16.046h-117.94z"/><path d="M813.893 362.042H694.35v-17.65h119.544zm-117.94-1.605H812.29v-14.442H695.954z" fill="#3f3d56"/><path fill="#f2f2f2" d="M689.134 289.433h303.273v16.046H689.134z"/><path d="M999.628 299.863H694.75v-17.65h304.878zm-303.273-1.605h301.67v-14.442h-301.67zm302.872-60.574H879.683v-17.65h119.544zm-117.94-1.605h116.335v-14.442H881.287zm-372.223 49.38c-36.45 0-66-29.55-66-66s29.55-66 66-66 66 29.55 66 66c-.04 36.434-29.566 65.96-66 66zm0-130c-35.346 0-64 28.654-64 64s28.654 64 64 64 64-28.654 64-64c-.04-35.33-28.67-63.96-64-64zm239 589h283v2h-283z" fill="#3f3d56"/><defs ><path id="B" d="M144.734 601.808h36.84l90.788-35.526s64.472-26.315 59.21 23.684S317.1 707.07 317.1 707.07s-28.947-13.158-44.736-9.2-5.263-80.262-5.263-80.262-128.945 61.84-140.787 53.946-14.473-63.157-14.473-63.157z"/><path id="C" d="M202.778 486.434l44.586 64.06 103.945 86.84s96.05 22.368 82.893 38.157-93.42-15.79-93.42-15.79-119.735-86.84-123.682-93.42-47.368-68.42-47.368-68.42z"/><path id="D" d="M418.17 19.255a6.42 6.42 0 0 1-4.539-10.957 6.42 6.42 0 0 1 10.957 4.539 6.43 6.43 0 0 1-6.418 6.418zm0-11.232c-1.947 0-3.702 1.173-4.447 2.972s-.333 3.87 1.044 5.246 3.447 1.79 5.246 1.044 2.972-2.5 2.972-4.447a4.82 4.82 0 0 0-4.814-4.814z"/></defs></svg>